# Blender v2.65 (sub 0) OBJ File: ''
# www.blender.org
v 0.107299 2.991034 -0.185846
v 0.000000 2.991034 -0.214597
v -0.107299 2.991034 -0.185846
v 0.185847 2.991034 -0.107298
v -0.185847 2.991034 -0.107298
v 0.214598 2.991034 0.000001
v -0.214598 2.991034 0.000001
v 0.185847 2.991034 0.107300
v -0.185847 2.991034 0.107300
v 0.107299 2.991034 0.185848
v -0.107299 2.991034 0.185848
v 0.000000 2.991034 0.214599
v 0.000000 -3.008966 -0.214598
v 0.107299 -3.008966 -0.185847
v -0.107299 -3.008966 -0.185847
v 0.185847 -3.008966 -0.107299
v -0.185847 -3.008966 -0.107299
v 0.214598 -3.008966 -0.000000
v -0.214598 -3.008966 -0.000000
v 0.185847 -3.008966 0.107299
v -0.185847 -3.008966 0.107299
v 0.107299 -3.008966 0.185847
v -0.107299 -3.008966 0.185847
v 0.000000 -3.008966 0.214598
vt 0.953388 0.102799
vt 0.975682 0.186000
vt 0.953388 0.269201
vt 0.892481 0.041892
vt 0.892481 0.330108
vt 0.809280 0.019598
vt 0.809280 0.352402
vt 0.726079 0.041892
vt 0.726079 0.330108
vt 0.665172 0.102799
vt 0.665172 0.269201
vt 0.642878 0.186000
vt 0.975681 0.186000
vt 0.953387 0.102800
vt 0.953387 0.269201
vt 0.892480 0.041892
vt 0.892480 0.330109
vt 0.809279 0.019599
vt 0.809279 0.352402
vt 0.726078 0.041892
vt 0.726078 0.330109
vt 0.665171 0.102800
vt 0.665171 0.269201
vt 0.317358 0.992235
vt 0.266058 0.992235
vt 0.317358 0.376628
vt 0.266058 0.376628
vt 0.214757 0.992235
vt 0.214757 0.376628
vt 0.163456 0.992235
vt 0.163456 0.376628
vt 0.112156 0.992235
vt 0.112156 0.376628
vt 0.060855 0.992235
vt 0.060855 0.376628
vt 0.009555 0.992235
vt 0.009555 0.376628
vt 0.625161 0.376628
vt 0.625161 0.992235
vt 0.573861 0.992235
vt 0.573861 0.376628
vt 0.522560 0.992235
vt 0.522560 0.376628
vt 0.471260 0.992235
vt 0.471260 0.376628
vt 0.419959 0.992235
vt 0.419959 0.376628
vt 0.368659 0.376628
vt 0.368659 0.992235
vn -0.000000 1.000000 0.000000
vn 0.000000 -1.000000 -0.000000
vn 0.000000 0.653218 -0.757134
vn 0.378552 0.653218 -0.655721
vn 0.000000 -0.653218 -0.757134
vn 0.378582 -0.653218 -0.655721
vn 0.655721 0.653218 -0.378552
vn 0.655721 -0.653218 -0.378552
vn 0.757134 0.653218 0.000000
vn 0.757134 -0.653218 0.000000
vn 0.655721 0.653218 0.378552
vn 0.655721 -0.653218 0.378582
vn 0.378582 0.653218 0.655721
vn 0.378552 -0.653218 0.655721
vn 0.000000 0.653218 0.757134
vn 0.000000 -0.653218 0.757134
vn -0.378552 0.653218 0.655721
vn -0.378552 -0.653218 0.655721
vn -0.655721 0.653218 0.378582
vn -0.655721 -0.653218 0.378552
vn -0.757134 0.653218 0.000000
vn -0.757134 -0.653218 0.000000
vn -0.655721 0.653218 -0.378552
vn -0.655721 -0.653218 -0.378582
vn -0.378552 -0.653218 -0.655721
vn -0.378552 0.653218 -0.655721
s off
f 1/1/1 2/2/1 3/3/1
f 1/1/1 3/3/1 4/4/1
f 3/3/1 5/5/1 4/4/1
f 5/5/1 6/6/1 4/4/1
f 5/5/1 7/7/1 6/6/1
f 7/7/1 8/8/1 6/6/1
f 7/7/1 9/9/1 8/8/1
f 9/9/1 10/10/1 8/8/1
f 9/9/1 11/11/1 10/10/1
f 11/11/1 12/12/1 10/10/1
f 13/13/2 14/14/2 15/15/2
f 14/14/2 16/16/2 15/15/2
f 16/16/2 17/17/2 15/15/2
f 16/16/2 18/18/2 17/17/2
f 18/18/2 19/19/2 17/17/2
f 18/18/2 20/20/2 19/19/2
f 20/20/2 21/21/2 19/19/2
f 20/20/2 22/22/2 21/21/2
f 22/22/2 23/23/2 21/21/2
f 22/22/2 24/12/2 23/23/2
s 1
f 2/24/3 1/25/4 13/26/5
f 13/26/5 1/25/4 14/27/6
f 14/27/6 1/25/4 4/28/7
f 14/27/6 4/28/7 16/29/8
f 16/29/8 4/28/7 6/30/9
f 16/29/8 6/30/9 18/31/10
f 18/31/10 6/30/9 8/32/11
f 18/31/10 8/32/11 20/33/12
f 20/33/12 8/32/11 10/34/13
f 20/33/12 10/34/13 22/35/14
f 22/35/14 10/34/13 12/36/15
f 22/35/14 12/36/15 24/37/16
f 24/38/16 12/39/15 11/40/17
f 24/38/16 11/40/17 23/41/18
f 23/41/18 11/40/17 9/42/19
f 23/41/18 9/42/19 21/43/20
f 21/43/20 9/42/19 7/44/21
f 21/43/20 7/44/21 19/45/22
f 19/45/22 7/44/21 5/46/23
f 19/45/22 5/46/23 17/47/24
f 2/24/3 13/26/5 15/48/25
f 2/24/3 15/48/25 3/49/26
f 17/47/24 5/46/23 3/49/26
f 17/47/24 3/49/26 15/48/25
