# Blender v2.65 (sub 0) OBJ File: ''
# www.blender.org
v 0.045511 0.037071 -0.000001
v 0.068711 0.052711 -0.000001
v 0.068711 0.037271 -0.037271
v 0.097711 0.044481 -0.044481
v 0.097711 0.062911 -0.000001
v 0.126911 0.058931 -0.000001
v 0.126911 0.041671 -0.041661
v 0.045511 0.026211 -0.026211
v 0.045511 0.026211 0.026209
v 0.068711 0.037271 0.037279
v 0.097711 0.044481 0.044479
v 0.126911 0.041671 0.041669
v 0.137181 0.033341 0.033339
v 0.137181 0.047151 -0.000001
v 0.137181 0.033341 -0.033341
v 0.068711 0.000001 -0.052711
v 0.097711 -0.044479 -0.044481
v 0.068711 -0.037279 -0.037271
v 0.097711 0.000001 -0.062901
v 0.126911 0.000001 -0.058921
v 0.126911 -0.041669 -0.041661
v 0.045511 0.000001 -0.037071
v 0.045511 -0.026209 -0.026211
v 0.137181 0.000001 -0.047151
v 0.137181 -0.033339 -0.033341
v 0.068711 -0.052719 -0.000001
v 0.097711 -0.044479 0.044479
v 0.068711 -0.037279 0.037279
v 0.097711 -0.062909 -0.000001
v 0.126911 -0.058929 -0.000001
v 0.126911 -0.041669 0.041669
v 0.045511 -0.037069 -0.000001
v 0.045511 -0.026209 0.026209
v 0.137181 -0.047149 -0.000001
v 0.137181 -0.033339 0.033339
v 0.068711 0.000001 0.052719
v 0.097711 0.000001 0.062909
v 0.126911 0.000001 0.058929
v 0.045511 0.000001 0.037069
v 0.137181 0.000001 0.047149
v -0.242609 0.026211 -0.026211
v -0.242609 0.037071 -0.000001
v -0.242609 0.026211 0.026209
v -0.242609 -0.026209 -0.026211
v -0.242609 0.000001 -0.037071
v -0.242609 -0.026209 0.026209
v -0.242609 -0.037069 -0.000001
v -0.242609 0.000001 0.037069
v 0.147091 0.000001 -0.000001
v -0.251799 0.043311 0.043309
v -0.251799 0.061251 -0.000001
v -0.251799 0.043311 -0.043311
v -0.251799 0.000001 -0.061251
v -0.251799 -0.043309 -0.043311
v -0.251799 -0.061249 -0.000001
v -0.251799 -0.043309 0.043309
v -0.251799 0.000001 0.061249
vt 0.122500 -0.906100
vt 0.122500 -0.898000
vt 0.109500 -0.898000
vt 0.107000 -0.887900
vt 0.122500 -0.887900
vt 0.122500 -0.877700
vt 0.108000 -0.877700
vt 0.113400 -0.906100
vt 0.131700 -0.906100
vt 0.135500 -0.898000
vt 0.138000 -0.887900
vt 0.137100 -0.877700
vt 0.134200 -0.874100
vt 0.122500 -0.874100
vt 0.110900 -0.874100
vt 0.090100 -0.897400
vt 0.074900 -0.887500
vt 0.077400 -0.897400
vt 0.090100 -0.887500
vt 0.090100 -0.877500
vt 0.075900 -0.877500
vt 0.090100 -0.905400
vt 0.081100 -0.905400
vt 0.099000 -0.905400
vt 0.102800 -0.897400
vt 0.105300 -0.887500
vt 0.104300 -0.877500
vt 0.101500 -0.874000
vt 0.090100 -0.874000
vt 0.078700 -0.874000
vt 0.056200 -0.896800
vt 0.040700 -0.886600
vt 0.043200 -0.896800
vt 0.056200 -0.886600
vt 0.056200 -0.878000
vt 0.041600 -0.878000
vt 0.056200 -0.904900
vt 0.047000 -0.904900
vt 0.065300 -0.904900
vt 0.069200 -0.896800
vt 0.071700 -0.886600
vt 0.070700 -0.878000
vt 0.067800 -0.872900
vt 0.056200 -0.872900
vt 0.044500 -0.872900
vt 0.158500 -0.898000
vt 0.143000 -0.887900
vt 0.145500 -0.898000
vt 0.158500 -0.887900
vt 0.158500 -0.877700
vt 0.144000 -0.877700
vt 0.158500 -0.906100
vt 0.149400 -0.906100
vt 0.167700 -0.906100
vt 0.171500 -0.898000
vt 0.174000 -0.887900
vt 0.173000 -0.877700
vt 0.170100 -0.874100
vt 0.158500 -0.874100
vt 0.146900 -0.874100
vt 0.113400 -0.986200
vt 0.122500 -0.986200
vt 0.131700 -0.986200
vt 0.081100 -0.983800
vt 0.090100 -0.983800
vt 0.099000 -0.983800
vt 0.047000 -0.985000
vt 0.056200 -0.985000
vt 0.065300 -0.985000
vt 0.149400 -0.986200
vt 0.158500 -0.986200
vt 0.167700 -0.986200
vt 0.038100 -0.977700
vt 0.042900 -0.966100
vt 0.026500 -0.966100
vt 0.038100 -0.954500
vt 0.026500 -0.949700
vt 0.014800 -0.954500
vt 0.010000 -0.966100
vt 0.014800 -0.977700
vt 0.026500 -0.982600
vt 0.036400 -0.937400
vt 0.030400 -0.941600
vt 0.031700 -0.947700
vt 0.019800 -0.945500
vt 0.023200 -0.940200
vt 0.013000 -0.935500
vt 0.019100 -0.934200
vt 0.015200 -0.923600
vt 0.020400 -0.927000
vt 0.025100 -0.916800
vt 0.026400 -0.922900
vt 0.037000 -0.919000
vt 0.033600 -0.924200
vt 0.043900 -0.928900
vt 0.037800 -0.930200
vt 0.041700 -0.940800
vn -0.314341 0.949278 0.000000
vn -0.436995 0.899441 -0.000031
vn -0.436933 0.636006 -0.636036
vn -0.095798 0.703757 -0.703909
vn -0.095859 0.995392 -0.000031
vn 0.442030 0.896969 -0.000031
vn 0.441939 0.634297 -0.634266
vn -0.314341 0.671255 -0.671255
vn -0.314432 0.671285 0.671194
vn -0.436933 0.636006 0.636036
vn -0.095798 0.703848 0.703848
vn 0.441969 0.634266 0.634297
vn 0.869869 0.348766 0.348766
vn 0.869869 0.493271 0.000000
vn 0.869778 0.348827 -0.348918
vn -0.436842 0.000031 -0.899503
vn -0.095706 -0.703757 -0.703940
vn -0.436903 -0.636036 -0.636006
vn -0.095737 0.000000 -0.995392
vn 0.441877 0.000000 -0.897061
vn 0.441939 -0.634297 -0.634266
vn -0.314341 0.000000 -0.949278
vn -0.314432 -0.671194 -0.671224
vn 0.869747 0.000000 -0.493454
vn 0.869778 -0.348827 -0.348918
vn -0.436933 -0.899472 0.000000
vn -0.095737 -0.703879 0.703818
vn -0.436903 -0.636036 0.636006
vn -0.095706 -0.995392 0.000000
vn 0.442000 -0.897000 0.000000
vn 0.441969 -0.634297 0.634266
vn -0.314524 -0.949248 -0.000031
vn -0.314554 -0.671163 0.671224
vn 0.869869 -0.493240 0.000000
vn 0.869869 -0.348766 0.348766
vn -0.436964 0.000031 0.899472
vn -0.095706 0.000031 0.995392
vn 0.442030 0.000000 0.896969
vn -0.314493 0.000000 0.949248
vn 0.869869 0.000000 0.493271
vn 0.643208 0.541398 -0.541429
vn 0.643239 0.765648 0.000000
vn 0.643208 0.541398 0.541398
vn 0.643208 -0.541398 -0.541398
vn 0.643239 0.000000 -0.765648
vn 0.643208 -0.541398 0.541398
vn 0.643239 -0.765648 0.000000
vn 0.643239 0.000000 0.765648
vn 1.000000 0.000000 0.000000
vn 0.934751 0.251198 0.251167
vn 0.934751 0.355235 0.000000
vn 0.934751 0.251167 -0.251198
vn 0.934751 0.000000 -0.355235
vn 0.934751 -0.251198 -0.251167
vn 0.934751 -0.355235 0.000000
vn 0.934751 -0.251167 0.251198
vn 0.934751 0.000000 0.355235
s 1
f 1/1/1 2/2/2 3/3/3
f 2/2/2 4/4/4 3/3/3
f 2/2/2 5/5/5 4/4/4
f 4/4/4 5/5/5 6/6/6
f 4/4/4 6/6/6 7/7/7
f 1/1/1 3/3/3 8/8/8
f 2/2/2 1/1/1 9/9/9
f 9/9/9 10/10/10 2/2/2
f 10/10/10 5/5/5 2/2/2
f 10/10/10 11/11/11 5/5/5
f 5/5/5 11/11/11 12/12/12
f 5/5/5 12/12/12 6/6/6
f 6/6/6 12/12/12 13/13/13
f 6/6/6 13/13/13 14/14/14
f 7/7/7 6/6/6 14/14/14
f 7/7/7 14/14/14 15/15/15
f 16/16/16 17/17/17 18/18/18
f 16/16/16 19/19/19 17/17/17
f 17/17/17 19/19/19 20/20/20
f 17/17/17 20/20/20 21/21/21
f 22/22/22 18/18/18 23/23/23
f 22/22/22 16/16/16 18/18/18
f 8/24/8 16/16/16 22/22/22
f 8/24/8 3/25/3 16/16/16
f 3/25/3 19/19/19 16/16/16
f 3/25/3 4/26/4 19/19/19
f 19/19/19 4/26/4 7/27/7
f 19/19/19 7/27/7 20/20/20
f 20/20/20 7/27/7 15/28/15
f 20/20/20 15/28/15 24/29/24
f 21/21/21 20/20/20 24/29/24
f 21/21/21 24/29/24 25/30/25
f 26/31/26 27/32/27 28/33/28
f 26/31/26 29/34/29 27/32/27
f 27/32/27 29/34/29 30/35/30
f 27/32/27 30/35/30 31/36/31
f 32/37/32 28/33/28 33/38/33
f 32/37/32 26/31/26 28/33/28
f 23/39/23 26/31/26 32/37/32
f 23/39/23 18/40/18 26/31/26
f 18/40/18 29/34/29 26/31/26
f 18/40/18 17/41/17 29/34/29
f 29/34/29 17/41/17 21/42/21
f 29/34/29 21/42/21 30/35/30
f 30/35/30 21/42/21 25/43/25
f 30/35/30 25/43/25 34/44/34
f 31/36/31 30/35/30 34/44/34
f 31/36/31 34/44/34 35/45/35
f 36/46/36 11/47/11 10/48/10
f 36/46/36 37/49/37 11/47/11
f 11/47/11 37/49/37 38/50/38
f 11/47/11 38/50/38 12/51/12
f 39/52/39 10/48/10 9/53/9
f 39/52/39 36/46/36 10/48/10
f 33/54/33 36/46/36 39/52/39
f 33/54/33 28/55/28 36/46/36
f 28/55/28 37/49/37 36/46/36
f 28/55/28 27/56/27 37/49/37
f 37/49/37 27/56/27 31/57/31
f 37/49/37 31/57/31 38/50/38
f 38/50/38 31/57/31 35/58/35
f 38/50/38 35/58/35 40/59/40
f 12/51/12 38/50/38 40/59/40
f 12/51/12 40/59/40 13/60/13
f 41/61/41 1/1/1 8/8/8
f 42/62/42 1/1/1 41/61/41
f 9/9/9 1/1/1 42/62/42
f 42/62/42 43/63/43 9/9/9
f 44/64/44 22/22/22 23/23/23
f 44/64/44 45/65/45 22/22/22
f 45/65/45 8/24/8 22/22/22
f 45/65/45 41/66/41 8/24/8
f 46/67/46 32/37/32 33/38/33
f 46/67/46 47/68/47 32/37/32
f 47/68/47 23/39/23 32/37/32
f 47/68/47 44/69/44 23/39/23
f 43/70/43 39/52/39 9/53/9
f 43/70/43 48/71/48 39/52/39
f 48/71/48 33/54/33 39/52/39
f 48/71/48 46/72/46 33/54/33
f 13/73/13 40/74/40 49/75/49
f 40/74/40 35/76/35 49/75/49
f 35/76/35 34/77/34 49/75/49
f 34/77/34 25/78/25 49/75/49
f 25/78/25 24/79/24 49/75/49
f 24/79/24 15/80/15 49/75/49
f 15/80/15 14/81/14 49/75/49
f 14/81/14 13/73/13 49/75/49
f 48/82/48 43/83/43 50/84/50
f 43/83/43 51/85/51 50/84/50
f 43/83/43 42/86/42 51/85/51
f 42/86/42 52/87/52 51/85/51
f 42/86/42 41/88/41 52/87/52
f 41/88/41 53/89/53 52/87/52
f 41/88/41 45/90/45 53/89/53
f 45/90/45 54/91/54 53/89/53
f 45/90/45 44/92/44 54/91/54
f 44/92/44 55/93/55 54/91/54
f 44/92/44 47/94/47 55/93/55
f 47/94/47 56/95/56 55/93/55
f 47/94/47 46/96/46 56/95/56
f 46/96/46 57/97/57 56/95/56
f 46/96/46 48/82/48 57/97/57
f 48/82/48 50/84/50 57/97/57
