# Blender v2.65 (sub 0) OBJ File: ''
# www.blender.org
v 0.254900 -1.253900 -0.032590
v 0.254900 -1.253900 0.032590
v 0.296140 0.000000 -0.100830
v 0.288780 -1.224980 -0.026140
v 0.296140 0.000000 0.100840
v 0.288780 -1.224980 0.026140
v 0.224570 0.000000 -0.117070
v 0.224570 0.038300 -0.117070
v 0.224570 0.000000 0.117080
v 0.249090 0.000000 -0.125710
v 0.235510 -1.224980 0.030350
v 0.249090 0.038290 0.125720
v 0.249090 0.038300 -0.125710
v 0.224570 0.038290 0.117080
v 0.235510 -1.224980 -0.030350
v 0.249090 0.000000 0.125720
v 0.296140 0.038300 -0.100830
v 0.296140 0.038290 0.100840
vt 0.856600 -0.973300
vt 0.904700 -0.973300
vt 0.899900 -0.956200
vt 0.861400 -0.956200
vt 0.955000 -0.227600
vt 0.806300 -0.227600
vt 0.955000 -0.204900
vt 0.806300 -0.204900
vt 0.709000 -0.215300
vt 0.724100 -0.191800
vt 0.709000 -0.191800
vt 0.724100 -0.215300
vt 0.748400 -0.962600
vt 0.733300 -0.986200
vt 0.748400 -0.986200
vt 0.733300 -0.962600
vt 0.973400 -0.204900
vt 0.973400 -0.227600
vt 0.787900 -0.227600
vt 0.787900 -0.204900
vt 0.785600 -0.986200
vt 0.773700 -0.947500
vt 0.773700 -0.984800
vt 0.785600 -0.946100
vt 0.729700 -0.191800
vt 0.741600 -0.209600
vt 0.768900 -0.980900
vt 0.753800 -0.831600
vt 0.753800 -0.986200
vt 0.768900 -0.836900
vt 0.717400 -0.968400
vt 0.705500 -0.986200
vn -0.095767 -0.810144 0.578295
vn -0.094790 -0.809229 -0.579730
vn 0.780114 -0.345134 -0.521744
vn 0.782128 -0.348369 0.516587
vn 0.851772 -0.020569 -0.523484
vn 0.852321 -0.018555 0.522629
vn 0.680471 0.607349 -0.409925
vn 0.680502 0.607288 0.409955
vn 0.072726 -0.035951 -0.996673
vn -0.211097 0.772301 -0.599139
vn 0.057436 0.627003 -0.776879
vn -0.332133 -0.034944 -0.942564
vn -0.331553 -0.035890 0.942717
vn 0.057436 0.626972 0.776879
vn -0.211127 0.772240 0.599170
vn 0.071413 -0.034700 0.996826
vn -0.577197 -0.329112 0.747307
vn -0.579455 -0.330302 -0.745048
s 1
f 2/1/1 1/2/2 4/3/3
f 4/3/3 6/4/4 2/1/1
f 3/5/5 6/4/4 4/3/3
f 3/5/5 5/6/6 6/4/4
f 5/6/6 3/5/5 17/7/7
f 5/6/6 17/7/7 18/8/8
f 10/9/9 8/10/10 13/11/11
f 10/9/9 7/12/12 8/10/10
f 9/13/13 12/14/14 14/15/15
f 9/13/13 16/16/16 12/14/14
f 3/5/5 13/17/11 17/7/7
f 3/5/5 10/18/9 13/17/11
f 16/19/16 18/8/8 12/20/14
f 16/19/16 5/6/6 18/8/8
f 1/21/2 11/22/17 15/23/18
f 1/21/2 2/24/1 11/22/17
f 2/25/1 9/13/13 11/26/17
f 2/25/1 16/16/16 9/13/13
f 8/27/10 12/28/14 13/29/11
f 8/27/10 14/30/15 12/28/14
f 10/9/9 15/31/18 7/12/12
f 10/9/9 1/32/2 15/31/18
f 3/5/5 1/2/2 10/18/9
f 4/3/3 1/2/2 3/5/5
f 6/4/4 16/19/16 2/1/1
f 6/4/4 5/6/6 16/19/16
f 13/17/11 18/8/8 17/7/7
f 13/17/11 12/20/14 18/8/8
