# Blender v2.65 (sub 0) OBJ File: ''
# www.blender.org
v 1.178193 0.001094 0.363433
v 1.178193 2.001094 0.363433
v 1.373283 0.001094 0.382648
v 1.373283 2.001094 0.382648
v 1.560877 0.001094 0.439554
v 1.560877 2.001094 0.439554
v 1.733763 0.001094 0.531964
v 1.733763 2.001094 0.531964
v 1.885300 0.001094 0.656326
v 1.885300 2.001094 0.656326
v 2.009663 0.001094 0.807863
v 2.009663 2.001094 0.807863
v 2.102073 0.001094 0.980750
v 2.102073 2.001094 0.980750
v 2.158978 0.001094 1.168343
v 2.158978 2.001094 1.168343
v 2.178193 0.001094 1.363433
v 2.178193 2.001094 1.363433
v 2.158978 0.001094 1.558523
v 2.158978 2.001094 1.558523
v 2.102073 0.001094 1.746116
v 2.102073 2.001094 1.746116
v 2.009663 0.001094 1.919003
v 2.009663 2.001094 1.919003
v 1.885300 0.001094 2.070540
v 1.885300 2.001094 2.070540
v 1.733763 0.001094 2.194903
v 1.733763 2.001094 2.194903
v 1.560876 0.001094 2.287313
v 1.560876 2.001094 2.287313
v 1.373283 0.001094 2.344218
v 1.373283 2.001094 2.344218
v 1.178193 0.001094 2.363433
v 1.178193 2.001094 2.363433
v 0.983102 0.001094 2.344218
v 0.983102 2.001094 2.344218
v 0.795509 0.001094 2.287313
v 0.795509 2.001094 2.287313
v 0.622622 0.001094 2.194902
v 0.622622 2.001094 2.194902
v 0.471086 0.001094 2.070539
v 0.471086 2.001094 2.070539
v 0.346723 0.001094 1.919003
v 0.346723 2.001094 1.919003
v 0.254313 0.001094 1.746116
v 0.254313 2.001094 1.746116
v 0.197408 0.001094 1.558523
v 0.197408 2.001094 1.558523
v 0.178193 0.001094 1.363432
v 0.178193 2.001094 1.363432
v 0.197408 0.001094 1.168342
v 0.197408 2.001094 1.168342
v 0.254314 0.001094 0.980749
v 0.254314 2.001094 0.980749
v 0.346724 0.001094 0.807862
v 0.346724 2.001094 0.807862
v 0.471087 0.001094 0.656325
v 0.471087 2.001094 0.656325
v 0.622624 0.001094 0.531963
v 0.622624 2.001094 0.531963
v 0.795511 0.001094 0.439553
v 0.795511 2.001094 0.439553
v 0.983104 0.001094 0.382648
v 0.983104 2.001094 0.382648
v 0.470946 0.139358 -0.233824
v 0.470946 0.139358 -2.233824
v 2.470946 0.139358 -2.233824
v 2.470946 0.139358 -0.233824
v 0.470946 2.139358 -0.233824
v 0.470946 2.139358 -2.233824
v 2.470946 2.139358 -2.233824
v 2.470946 2.139358 -0.233824
v -0.399664 0.014066 1.851785
v -0.399665 2.014066 1.851785
v -0.399665 0.014066 -0.148215
v -0.399666 2.014066 -0.148215
v 2.552744 0.000596 2.541421
v -2.515507 0.000596 2.541420
v 2.552744 0.000596 -2.526830
v -2.515507 0.000596 -2.526830
vt 1.000000 -0.000000
vt 1.000000 1.000000
vt 0.968750 1.000000
vt 0.968750 -0.000000
vt 0.937500 1.000000
vt 0.937500 -0.000000
vt 0.906250 1.000000
vt 0.906250 -0.000000
vt 0.875000 1.000000
vt 0.875000 -0.000000
vt 0.843750 1.000000
vt 0.843750 -0.000000
vt 0.812500 1.000000
vt 0.812500 -0.000000
vt 0.781250 1.000000
vt 0.781250 -0.000000
vt 0.750000 1.000000
vt 0.750000 -0.000000
vt 0.718750 1.000000
vt 0.718750 -0.000000
vt 0.687500 1.000000
vt 0.687500 -0.000000
vt 0.656250 1.000000
vt 0.656250 -0.000000
vt 0.625000 1.000000
vt 0.625000 -0.000000
vt 0.593750 1.000000
vt 0.593750 0.000000
vt 0.562500 1.000000
vt 0.562500 0.000000
vt 0.531250 1.000000
vt 0.531250 0.000000
vt 0.500000 1.000000
vt 0.500000 0.000000
vt 0.468750 1.000000
vt 0.468750 0.000000
vt 0.437500 1.000000
vt 0.437500 0.000000
vt 0.406250 1.000000
vt 0.406250 0.000000
vt 0.375000 1.000000
vt 0.375000 0.000000
vt 0.343750 1.000000
vt 0.343750 0.000000
vt 0.312500 1.000000
vt 0.312500 -0.000000
vt 0.281250 1.000000
vt 0.281250 -0.000000
vt 0.250000 1.000000
vt 0.250000 -0.000000
vt 0.218750 1.000000
vt 0.218750 -0.000000
vt 0.187500 1.000000
vt 0.187500 -0.000000
vt 0.156250 1.000000
vt 0.156250 -0.000000
vt 0.125000 1.000000
vt 0.125000 -0.000000
vt 0.093750 1.000000
vt 0.093750 -0.000000
vt 0.062500 1.000000
vt 0.062500 -0.000000
vt 0.597546 0.990393
vt 0.402456 0.990393
vt 0.308659 0.961940
vt 0.691342 0.961940
vt 0.222215 0.915735
vt 0.777785 0.915735
vt 0.146447 0.853554
vt 0.853554 0.853553
vt 0.084266 0.777785
vt 0.915735 0.777785
vt 0.038061 0.691342
vt 0.961940 0.691342
vt 0.009608 0.597546
vt 0.990393 0.597545
vt 0.000000 0.500000
vt 1.000000 0.500000
vt 0.009608 0.402455
vt 0.990393 0.402455
vt 0.038060 0.308659
vt 0.961940 0.308658
vt 0.084265 0.222215
vt 0.915735 0.222215
vt 0.146447 0.146447
vt 0.853554 0.146446
vt 0.222215 0.084265
vt 0.777785 0.084265
vt 0.308658 0.038060
vt 0.691342 0.038060
vt 0.402455 0.009607
vt 0.597545 0.009607
vt 0.000000 1.000000
vt 0.000000 -0.000000
vt 0.031250 -0.000000
vt 0.031250 1.000000
vt 0.003631 0.999366
vt 1.003631 0.999366
vt 1.003631 -0.000634
vt 0.003631 -0.000634
vt 0.008911 0.999366
vt 1.008911 0.999366
vt 1.008911 -0.000634
vt 0.008911 -0.000634
vt 1.007537 0.999366
vt 0.007537 0.999366
vt 0.007537 -0.000634
vt 1.007537 -0.000634
vt 1.005004 1.003273
vt 0.005004 1.003273
vt 0.005004 0.003273
vt 1.005004 0.003273
vt 1.005004 0.003631
vt 1.005004 1.003631
vt 0.005004 1.003631
vt 0.005004 0.003631
vt 0.005414 0.994578
vt 0.005414 0.001947
vt 0.998044 0.001947
vt 0.998044 0.994578
vt -0.002409 0.000259
vt 0.997591 0.000259
vt 0.997591 1.000259
vt -0.002409 1.000259
vn 0.098017 0.000000 -0.995185
vn 0.290285 0.000000 -0.956940
vn 0.471397 0.000000 -0.881921
vn 0.634393 0.000000 -0.773010
vn 0.773011 0.000000 -0.634393
vn 0.881921 0.000000 -0.471397
vn 0.956940 0.000000 -0.290285
vn 0.995185 0.000000 -0.098017
vn 0.995185 0.000000 0.098017
vn 0.956940 0.000000 0.290285
vn 0.881921 0.000000 0.471397
vn 0.773011 0.000000 0.634393
vn 0.634393 0.000000 0.773010
vn 0.471396 0.000000 0.881922
vn 0.290285 0.000000 0.956940
vn 0.098017 0.000000 0.995185
vn -0.098018 0.000000 0.995185
vn -0.290285 0.000000 0.956940
vn -0.471397 0.000000 0.881921
vn -0.634394 0.000000 0.773010
vn -0.773011 0.000000 0.634393
vn -0.881922 0.000000 0.471396
vn -0.956941 0.000000 0.290284
vn -0.995185 0.000000 0.098016
vn -0.995185 0.000000 -0.098018
vn -0.956940 0.000000 -0.290286
vn -0.881921 0.000000 -0.471398
vn -0.773010 0.000000 -0.634394
vn -0.634392 0.000000 -0.773011
vn -0.471395 0.000000 -0.881922
vn -0.000000 1.000000 0.000000
vn -0.098017 0.000000 -0.995185
vn -0.290283 0.000000 -0.956941
vn 0.000000 -1.000000 -0.000000
vn -1.000000 0.000000 0.000000
vn 0.000000 0.000000 -1.000000
vn 1.000000 -0.000000 0.000000
vn 0.000000 -0.000000 1.000000
vn 1.000000 0.000001 -0.000000
s off
f 1/1/1 2/2/1 4/3/1
f 1/1/1 4/3/1 3/4/1
f 3/4/2 4/3/2 6/5/2
f 3/4/2 6/5/2 5/6/2
f 5/6/3 6/5/3 8/7/3
f 5/6/3 8/7/3 7/8/3
f 7/8/4 8/7/4 10/9/4
f 7/8/4 10/9/4 9/10/4
f 9/10/5 10/9/5 12/11/5
f 9/10/5 12/11/5 11/12/5
f 11/12/6 12/11/6 14/13/6
f 11/12/6 14/13/6 13/14/6
f 13/14/7 14/13/7 16/15/7
f 13/14/7 16/15/7 15/16/7
f 15/16/8 16/15/8 18/17/8
f 15/16/8 18/17/8 17/18/8
f 17/18/9 18/17/9 20/19/9
f 17/18/9 20/19/9 19/20/9
f 19/20/10 20/19/10 22/21/10
f 19/20/10 22/21/10 21/22/10
f 21/22/11 22/21/11 24/23/11
f 21/22/11 24/23/11 23/24/11
f 23/24/12 24/23/12 26/25/12
f 23/24/12 26/25/12 25/26/12
f 25/26/13 26/25/13 28/27/13
f 25/26/13 28/27/13 27/28/13
f 27/28/14 28/27/14 30/29/14
f 27/28/14 30/29/14 29/30/14
f 29/30/15 30/29/15 32/31/15
f 29/30/15 32/31/15 31/32/15
f 31/32/16 32/31/16 34/33/16
f 31/32/16 34/33/16 33/34/16
f 33/34/17 34/33/17 36/35/17
f 33/34/17 36/35/17 35/36/17
f 35/36/18 36/35/18 38/37/18
f 35/36/18 38/37/18 37/38/18
f 37/38/19 38/37/19 40/39/19
f 37/38/19 40/39/19 39/40/19
f 39/40/20 40/39/20 42/41/20
f 39/40/20 42/41/20 41/42/20
f 41/42/21 42/41/21 44/43/21
f 41/42/21 44/43/21 43/44/21
f 43/44/22 44/43/22 46/45/22
f 43/44/22 46/45/22 45/46/22
f 45/46/23 46/45/23 48/47/23
f 45/46/23 48/47/23 47/48/23
f 47/48/24 48/47/24 50/49/24
f 47/48/24 50/49/24 49/50/24
f 49/50/25 50/49/25 52/51/25
f 49/50/25 52/51/25 51/52/25
f 51/52/26 52/51/26 54/53/26
f 51/52/26 54/53/26 53/54/26
f 53/54/27 54/53/27 56/55/27
f 53/54/27 56/55/27 55/56/27
f 55/56/28 56/55/28 58/57/28
f 55/56/28 58/57/28 57/58/28
f 57/58/29 58/57/29 60/59/29
f 57/58/29 60/59/29 59/60/29
f 59/60/30 60/59/30 62/61/30
f 59/60/30 62/61/30 61/62/30
f 4/63/31 2/33/31 64/64/31
f 4/63/31 64/64/31 62/65/31
f 4/63/31 62/65/31 6/66/31
f 62/65/31 60/67/31 6/66/31
f 60/67/31 8/68/31 6/66/31
f 60/67/31 58/69/31 8/68/31
f 58/69/31 10/70/31 8/68/31
f 58/69/31 56/71/31 10/70/31
f 56/71/31 12/72/31 10/70/31
f 56/71/31 54/73/31 12/72/31
f 54/73/31 14/74/31 12/72/31
f 54/73/31 52/75/31 14/74/31
f 52/75/31 16/76/31 14/74/31
f 52/75/31 50/77/31 16/76/31
f 50/77/31 18/78/31 16/76/31
f 50/77/31 48/79/31 18/78/31
f 48/79/31 20/80/31 18/78/31
f 48/79/31 46/81/31 20/80/31
f 46/81/31 22/82/31 20/80/31
f 46/81/31 44/83/31 22/82/31
f 44/83/31 24/84/31 22/82/31
f 44/83/31 42/85/31 24/84/31
f 42/85/31 26/86/31 24/84/31
f 42/85/31 40/87/31 26/86/31
f 40/87/31 28/88/31 26/86/31
f 40/87/31 38/89/31 28/88/31
f 38/89/31 30/90/31 28/88/31
f 38/89/31 36/91/31 30/90/31
f 36/91/31 32/92/31 30/90/31
f 36/91/31 34/34/31 32/92/31
f 2/93/32 1/94/32 63/95/32
f 2/93/32 63/95/32 64/96/32
f 61/62/33 62/61/33 64/96/33
f 61/62/33 64/96/33 63/95/33
f 1/33/34 3/63/34 63/64/34
f 3/63/34 61/65/34 63/64/34
f 3/63/34 5/66/34 61/65/34
f 5/66/34 59/67/34 61/65/34
f 5/66/34 7/68/34 59/67/34
f 7/68/34 57/69/34 59/67/34
f 7/68/34 9/70/34 57/69/34
f 9/70/34 55/71/34 57/69/34
f 9/70/34 11/72/34 55/71/34
f 11/72/34 53/73/34 55/71/34
f 11/72/34 13/74/34 53/73/34
f 13/74/34 51/75/34 53/73/34
f 13/74/34 15/76/34 51/75/34
f 15/76/34 49/77/34 51/75/34
f 15/76/34 17/78/34 49/77/34
f 17/78/34 47/79/34 49/77/34
f 17/78/34 19/80/34 47/79/34
f 19/80/34 45/81/34 47/79/34
f 19/80/34 21/82/34 45/81/34
f 21/82/34 43/83/34 45/81/34
f 21/82/34 23/84/34 43/83/34
f 23/84/34 41/85/34 43/83/34
f 23/84/34 25/86/34 41/85/34
f 25/86/34 39/87/34 41/85/34
f 25/86/34 27/88/34 39/87/34
f 27/88/34 37/89/34 39/87/34
f 27/88/34 29/90/34 37/89/34
f 29/90/34 35/91/34 37/89/34
f 29/90/34 31/92/34 35/91/34
f 31/92/34 33/34/34 35/91/34
f 69/97/35 70/98/35 66/99/35
f 69/97/35 66/99/35 65/100/35
f 70/101/36 71/102/36 67/103/36
f 70/101/36 67/103/36 66/104/36
f 71/105/37 72/106/37 68/107/37
f 71/105/37 68/107/37 67/108/37
f 72/109/38 69/110/38 65/111/38
f 72/109/38 65/111/38 68/112/38
f 65/94/34 66/94/34 67/94/34
f 65/94/34 67/94/34 68/94/34
f 72/113/31 71/114/31 70/115/31
f 72/113/31 70/115/31 69/116/31
f 74/117/39 73/118/39 75/119/39
f 74/117/39 75/119/39 76/120/39
f 78/121/31 77/122/31 79/123/31
f 78/121/31 79/123/31 80/124/31
