# Blender v2.65 (sub 0) OBJ File: ''
# www.blender.org
v -0.009657 0.000002 -5.097519
v -0.040698 -0.000001 -0.007150
v -0.032925 0.023922 -0.007150
v -0.007813 0.005677 -5.097519
v -0.012575 0.038707 -0.007150
v -0.002985 0.009184 -5.097519
v 0.012579 0.038707 -0.007150
v 0.002982 0.009184 -5.097519
v 0.032929 0.023922 -0.007150
v 0.007809 0.005677 -5.097519
v 0.040701 -0.000001 -0.007150
v 0.009653 0.000002 -5.097519
v 0.032929 -0.023923 -0.007150
v 0.007809 -0.005673 -5.097519
v 0.012579 -0.038709 -0.007150
v 0.002982 -0.009181 -5.097519
v -0.012575 -0.038709 -0.007150
v -0.002985 -0.009181 -5.097519
v -0.032925 -0.023923 -0.007150
v -0.007813 -0.005673 -5.097519
vt 0.002755 0.299063
vt 0.997207 0.299154
vt 0.997188 0.348262
vt 0.002736 0.348172
vt 0.997168 0.397371
vt 0.002716 0.397280
vt 0.997149 0.446479
vt 0.002697 0.446388
vt 0.997130 0.495588
vt 0.002678 0.495497
vt 0.002870 0.004412
vt 0.997322 0.004503
vt 0.997303 0.053612
vt 0.002851 0.053521
vt 0.997284 0.102720
vt 0.002832 0.102629
vt 0.997265 0.151829
vt 0.002812 0.151738
vt 0.997245 0.200937
vt 0.002793 0.200846
vt 0.403563 0.546985
vt 0.498470 0.671218
vt 0.498470 0.824781
vt 0.403563 0.949017
vt 0.250000 0.499530
vt 0.250000 0.996470
vt 0.096437 0.546985
vt 0.096438 0.949017
vt 0.001530 0.671218
vt 0.001530 0.824781
vt 0.002774 0.249955
vt 0.997226 0.250046
vt 0.504863 0.824370
vt 0.504863 0.671630
vt 0.599261 0.548062
vt 0.599261 0.947938
vt 0.752000 0.500863
vt 0.752000 0.995137
vt 0.904739 0.548062
vt 0.904739 0.947938
vt 0.999137 0.671630
vt 0.999137 0.824370
vn -0.951039 0.309016 -0.005799
vn -0.951045 0.308998 -0.005799
vn -0.587794 0.808990 -0.005799
vn -0.587772 0.809006 -0.005799
vn 0.000000 0.999983 -0.005800
vn 0.587772 0.809006 -0.005800
vn 0.951047 0.308992 -0.005801
vn 0.951039 0.309016 -0.005800
vn 0.951045 -0.308998 -0.005801
vn 0.951039 -0.309016 -0.005801
vn 0.587772 -0.809006 -0.005801
vn 0.587794 -0.808990 -0.005801
vn 0.000000 -0.999983 -0.005801
vn 0.000000 -0.000000 1.000000
vn -0.951047 -0.308992 -0.005800
vn -0.951039 -0.309016 -0.005800
vn -0.587772 -0.809006 -0.005800
vn 0.000000 0.000000 -1.000000
s off
f 1/1/1 2/2/1 3/3/1
f 1/1/2 3/3/2 4/4/2
f 4/4/3 3/3/3 5/5/3
f 4/4/4 5/5/4 6/6/4
f 6/6/5 5/5/5 7/7/5
f 6/6/5 7/7/5 8/8/5
f 8/8/6 7/7/6 9/9/6
f 8/8/6 9/9/6 10/10/6
f 10/11/7 9/12/7 11/13/7
f 10/11/8 11/13/8 12/14/8
f 12/14/9 11/13/9 13/15/9
f 12/14/10 13/15/10 14/16/10
f 14/16/11 13/15/11 15/17/11
f 14/16/12 15/17/12 16/18/12
f 16/18/13 15/17/13 17/19/13
f 16/18/13 17/19/13 18/20/13
f 9/21/14 7/22/14 5/23/14
f 3/24/14 9/21/14 5/23/14
f 3/24/14 11/25/14 9/21/14
f 3/24/14 2/26/14 11/25/14
f 2/26/14 13/27/14 11/25/14
f 2/26/14 19/28/14 13/27/14
f 19/28/14 15/29/14 13/27/14
f 19/28/14 17/30/14 15/29/14
f 2/2/15 1/1/15 20/31/15
f 2/2/16 20/31/16 19/32/16
f 18/20/17 17/19/17 19/32/17
f 18/20/17 19/32/17 20/31/17
f 6/33/18 8/34/18 10/35/18
f 4/36/18 6/33/18 10/35/18
f 4/36/18 10/35/18 12/37/18
f 1/38/18 4/36/18 12/37/18
f 1/38/18 12/37/18 14/39/18
f 1/38/18 14/39/18 20/40/18
f 14/39/18 16/41/18 20/40/18
f 16/41/18 18/42/18 20/40/18
