# Blender v2.65 (sub 0) OBJ File: ''
# www.blender.org
v -1.000000 -1.000000 1.000000
v -1.000000 -1.000000 -1.000000
v 1.000000 -1.000000 -1.000000
v 1.000000 -1.000000 1.000000
v -1.000000 1.000000 1.000000
v -1.000000 1.000000 -1.000000
v 1.000000 1.000000 -1.000000
v 1.000000 1.000000 1.000000
vt 0.500000 1.000000
vt 1.000000 1.000000
vt 1.000000 0.000000
vt 0.500000 0.000000
vt 0.000000 1.000000
vt 0.000000 0.000000
vn 0.000000 0.000000 -1.000000
vn 1.000000 -0.000000 0.000000
vn 0.000000 0.000000 1.000000
s off
f 6/1/1 7/2/1 3/3/1
f 6/1/1 3/3/1 2/4/1
f 7/1/2 8/5/2 4/6/2
f 7/1/2 4/6/2 3/4/2
f 1/6/3 4/4/3 8/1/3
f 1/6/3 8/1/3 5/5/3
